<svg xmlns="http://www.w3.org/2000/svg" width="28.239" height="32.047" viewBox="0 0 28.239 32.047">
  <g id="angel" transform="translate(-30.744 0.25)">
    <path id="Path_16802" data-name="Path 16802" d="M157.47,5.545c3.22,0,6.47-.857,6.47-2.773S160.69,0,157.47,0,151,.857,151,2.773,154.249,5.545,157.47,5.545Zm0-3.7a8.6,8.6,0,0,1,4.537.924,8.6,8.6,0,0,1-4.537.924,8.6,8.6,0,0,1-4.537-.924A8.6,8.6,0,0,1,157.47,1.848Z" transform="translate(-112.606 0)" fill="#fff" stroke="#659f3d" stroke-width="0.5"/>
    <path id="Path_16803" data-name="Path 16803" d="M31.9,103.856a22.821,22.821,0,0,1-.853,10.928A.924.924,0,0,0,31.924,116a6.478,6.478,0,0,0,5.85-3.708,4.629,4.629,0,0,0,4.238-3.766,4.617,4.617,0,0,0,2.851-1.807,4.617,4.617,0,0,0,2.851,1.807,4.629,4.629,0,0,0,4.238,3.766A6.478,6.478,0,0,0,57.8,116a.924.924,0,0,0,.877-1.216,22.823,22.823,0,0,1-.852-10.93c.743-4.7.9-5.02.9-6.152a8.308,8.308,0,0,0-2.449-5.913l-.564-.564a4.181,4.181,0,0,0-6.924,1.634,3.923,3.923,0,0,1-3.727,2.686h-.4a3.923,3.923,0,0,1-3.727-2.686A4.176,4.176,0,0,0,36.97,90a4.71,4.71,0,0,0-3.521,1.789A8.308,8.308,0,0,0,31,97.7C31,98.839,31.173,99.258,31.9,103.856ZM50.543,93.444a2.333,2.333,0,0,1,3.863-.912l.564.564A6.472,6.472,0,0,1,56.878,97.7c0,.9-.134,1.2-.875,5.85a24.705,24.705,0,0,0,.5,10.415,4.629,4.629,0,0,1-3.324-4.436v-5.607a.924.924,0,0,0-1.848,0v5.607a6.5,6.5,0,0,0,.047.781,2.777,2.777,0,0,1-1.9-2.63v-5.669a.924.924,0,1,0-1.848,0v4.575a2.876,2.876,0,0,1-1.848-2.665V97.348A5.768,5.768,0,0,0,50.543,93.444ZM34.757,93.1a3.059,3.059,0,0,1,2.214-1.247,2.33,2.33,0,0,1,2.213,1.6,5.769,5.769,0,0,0,4.755,3.9v6.576a2.876,2.876,0,0,1-1.848,2.665v-4.575a.924.924,0,1,0-1.848,0v5.669a2.777,2.777,0,0,1-1.9,2.63,6.5,6.5,0,0,0,.047-.781v-5.607a.924.924,0,0,0-1.848,0v5.607a4.63,4.63,0,0,1-3.324,4.436,24.7,24.7,0,0,0,.5-10.413c-.76-4.769-.875-4.952-.875-5.852A6.472,6.472,0,0,1,34.757,93.1Z" transform="translate(0 -84.455)" fill="#fff" stroke="#659f3d" stroke-width="0.5"/>
  </g>
</svg>
