<svg id="banner-bg" xmlns="http://www.w3.org/2000/svg" width="437.849" height="435.132" viewBox="0 0 437.849 435.132">
  <path id="Path_16817" data-name="Path 16817" d="M749.9,256.8q7.878,4.158,15.4,8.51" transform="translate(-453.077 -139.583)" fill="none" stroke="#2f2e41" stroke-miterlimit="10" stroke-width="1"/>
  <path id="Path_16818" data-name="Path 16818" d="M562.441,223.849c22.907,4.953,47.917,13.5,73.111,25.572a349.7,349.7,0,0,1,52.188,30.63" transform="translate(-363.348 -123.813)" fill="none" stroke="#2f2e41" stroke-miterlimit="10" stroke-width="1"/>
  <path id="Path_16819" data-name="Path 16819" d="M521.327,216.817c6.884.846,14.05,2.069,21.435,3.666" transform="translate(-343.668 -120.447)" fill="none" stroke="#2f2e41" stroke-miterlimit="10" stroke-width="1"/>
  <path id="Path_16820" data-name="Path 16820" d="M379.66,287.365c-12.718-18.612-17.086-36.2-10.552-49.837,7.227-15.088,26.572-22.806,52.8-23.375" transform="translate(-269.367 -119.172)" fill="none" stroke="#2f2e41" stroke-miterlimit="10" stroke-width="1"/>
  <path id="Path_16821" data-name="Path 16821" d="M882.185,434.318c10.6,17.064,13.889,33.063,7.843,45.685-5.321,11.108-17.209,18.221-33.575,21.428" transform="translate(-504.078 -224.555)" fill="none" stroke="#2f2e41" stroke-miterlimit="10" stroke-width="1"/>
  <path id="Path_16822" data-name="Path 16822" d="M802.78,331.65a259.686,259.686,0,0,1,30.039,24.9" transform="translate(-478.387 -175.412)" fill="none" stroke="#2f2e41" stroke-miterlimit="10" stroke-width="1"/>
  <path id="Path_16823" data-name="Path 16823" d="M378.605,169.655c21.11-4.535,48.428-3.729,78.98,2.293" transform="translate(-275.354 -96.486)" fill="none" stroke="#2f2e41" stroke-miterlimit="10" stroke-width="1"/>
  <path id="Path_16824" data-name="Path 16824" d="M967.943,434.314c9.451,13.805,15.263,27.164,16.782,39.33" transform="translate(-557.443 -224.553)" fill="none" stroke="#2f2e41" stroke-miterlimit="10" stroke-width="1"/>
  <path id="Path_16825" data-name="Path 16825" d="M779.444,273.12q14.219,8.221,27.057,17.006" transform="translate(-467.217 -147.397)" fill="none" stroke="#2f2e41" stroke-miterlimit="10" stroke-width="1"/>
  <path id="Path_16826" data-name="Path 16826" d="M794.258,663.141a13.07,13.07,0,0,0-11.266,7.877c-2.817,6.81.81,14.809,6.255,19.775s12.44,7.8,18.8,11.535c8.536,5.011,16.207,11.968,20.478,20.9s4.725,19.991-.3,28.521c-4.66,7.918-13.133,12.657-21.215,17.027" transform="translate(-468.447 -334.082)" fill="none" stroke="#3f3d56" stroke-miterlimit="10" stroke-width="1"/>
  <ellipse id="Ellipse_120" data-name="Ellipse 120" cx="9.953" cy="4.834" rx="9.953" ry="4.834" transform="translate(323.036 324.818)" fill="#57b894"/>
  <ellipse id="Ellipse_121" data-name="Ellipse 121" cx="9.953" cy="4.834" rx="9.953" ry="4.834" transform="translate(330.998 356.666)" fill="#57b894"/>
  <ellipse id="Ellipse_122" data-name="Ellipse 122" cx="9.953" cy="4.834" rx="9.953" ry="4.834" transform="translate(312.799 361.785)" fill="#57b894"/>
  <ellipse id="Ellipse_123" data-name="Ellipse 123" cx="9.953" cy="4.834" rx="9.953" ry="4.834" transform="translate(341.235 388.515)" fill="#57b894"/>
  <ellipse id="Ellipse_124" data-name="Ellipse 124" cx="9.953" cy="4.834" rx="9.953" ry="4.834" transform="translate(361.14 388.515)" fill="#57b894"/>
  <path id="Path_16842" data-name="Path 16842" d="M599.139,484.16c-26.1-4.3-55.632-13.654-85.42-27.922-33.917-16.246-62.657-36.226-83.136-56.418" transform="translate(-300.233 -208.042)" fill="none" stroke="#2f2e41" stroke-miterlimit="10" stroke-width="1"/>
  <path id="Path_16843" data-name="Path 16843" d="M493.305,488.579a422.353,422.353,0,0,1-62.724-39.553" transform="translate(-300.232 -231.595)" fill="none" stroke="#2f2e41" stroke-miterlimit="10" stroke-width="1"/>
  <circle id="Ellipse_128" data-name="Ellipse 128" cx="27.996" cy="27.996" r="27.996" transform="translate(0 11.906)" fill="#ffec7d"/>
  <circle id="Ellipse_129" data-name="Ellipse 129" cx="27.996" cy="27.996" r="27.996" transform="translate(6.567 0.5)" fill="none" stroke="#2f2e41" stroke-miterlimit="10" stroke-width="1"/>
  <circle id="Ellipse_130" data-name="Ellipse 130" cx="16.289" cy="16.289" r="16.289" transform="translate(400.951 124.736)" fill="#f2f2f2"/>
  <circle id="Ellipse_131" data-name="Ellipse 131" cx="16.289" cy="16.289" r="16.289" transform="translate(404.772 118.1)" fill="none" stroke="#2f2e41" stroke-miterlimit="10" stroke-width="1"/>
  <circle id="Ellipse_132" data-name="Ellipse 132" cx="23.415" cy="23.415" r="23.415" transform="translate(96.683 287.404)" fill="#f2f2f2"/>
  <circle id="Ellipse_133" data-name="Ellipse 133" cx="23.415" cy="23.415" r="23.415" transform="translate(102.176 277.865)" fill="none" stroke="#2f2e41" stroke-miterlimit="10" stroke-width="1"/>
</svg>
