<svg xmlns="http://www.w3.org/2000/svg" width="42.329" height="34.748" viewBox="0 0 42.329 34.748">
  <g id="divorce" transform="translate(630 -246.627)">
    <g id="Group_2272" data-name="Group 2272" transform="translate(-630 246.627)">
      <path id="Path_16816" data-name="Path 16816" d="M-587.671,259.059c-.171.819-.286,1.654-.525,2.453a11.229,11.229,0,0,1-3.516,5.39q-8.259,7.092-16.53,14.172c-.471.4-.717.4-1.188,0q-8.265-7.084-16.527-14.173a11.371,11.371,0,0,1-3.969-7.521,2.837,2.837,0,0,0-.074-.318v-1.984c.083-.457.147-.918.251-1.37.976-4.244,3.38-7.32,7.624-8.548,4.65-1.345,8.8-.05,12.459,3a.679.679,0,0,1,.132.931c-.365.694-.722,1.392-1.082,2.089l-2.135,4.138c.236.209.466.427.712.624a.48.48,0,0,0,.321.126c.523-.093,1.041-.214,1.577-.329a.746.746,0,0,1,.333-1c.2-.128.379-.274.569-.412l3.363-2.441c-.679-.924-1.339-1.821-2-2.72-.41-.56-.378-.816.15-1.258a13.725,13.725,0,0,1,6.142-2.97,11.425,11.425,0,0,1,8.2,1.1,11.163,11.163,0,0,1,5.546,8.146q.081.441.161.883Zm-23.237-8.21c-.116-.1-.2-.167-.286-.233-.142-.109-.282-.221-.43-.322a11.841,11.841,0,0,0-9.327-2.088,9.744,9.744,0,0,0-7.7,9.517,10.033,10.033,0,0,0,3.736,8.326l12.08,10.356c1.327,1.137,2.655,2.272,4,3.425.214-.181.412-.347.609-.516l4.362-3.738c3.734-3.2,7.493-6.373,11.194-9.611a9.894,9.894,0,0,0,3.407-10.074,9.291,9.291,0,0,0-7.5-7.684,11.662,11.662,0,0,0-9.083,1.942c-.248.162-.481.348-.7.511a.712.712,0,0,0,.045.134q.965,1.316,1.931,2.631c.431.589.388.879-.2,1.3q-1.605,1.164-3.212,2.327c-.093.067-.178.145-.295.24a.567.567,0,0,0,.134.022q3.768-.8,7.535-1.606a7.132,7.132,0,0,1,2.979-.26,4.64,4.64,0,0,1,3.755,4.433,4.594,4.594,0,0,1-3.594,4.636c-1.874.438-3.756.84-5.64,1.231a2.036,2.036,0,0,0-1.515.893c-.606.946-1.393,1.775-2.086,2.666a1.74,1.74,0,0,0-.316.653c-.413,1.782-.809,3.569-1.206,5.355-.081.363-.266.609-.662.613-.421,0-.6-.264-.687-.637-.415-1.881-.843-3.759-1.236-5.644a1.491,1.491,0,0,1,.1-.821c.217-.526.5-1.026.781-1.59-.137.017-.2.019-.267.033-2.084.44-4.16.92-6.253,1.31A4.374,4.374,0,0,1-621,266.82a4.418,4.418,0,0,1-.421-4.9,4.716,4.716,0,0,1,3.614-2.524c1.45-.274,2.888-.613,4.385-.934-.11-.124-.17-.2-.235-.264-.679-.7-.68-.7-.235-1.557Zm-.511,15.3,8.425-1.8-1.387-6.452-4.236.911-4.186.9Zm-1.3.3-1.394-6.49c-1.3.281-2.545.556-3.794.82a3.306,3.306,0,0,0-2.707,3.673,3.237,3.237,0,0,0,3.7,2.853C-615.514,267.115-614.139,266.749-612.714,266.452Zm11.024-2.34c1.524-.359,3.04-.605,4.478-1.087a3.175,3.175,0,0,0,1.93-3.807,3.22,3.22,0,0,0-3.351-2.5c-1.48.2-2.937.561-4.454.862Zm-7.246,7.905.075.015a7.024,7.024,0,0,0,.181-.8,6.367,6.367,0,0,1,1.866-3.926,10.359,10.359,0,0,0,.721-.912c-.72.159-1.336.284-1.944.437a.555.555,0,0,0-.317.253c-.364.693-.711,1.394-1.055,2.1a.6.6,0,0,0-.078.349C-609.314,270.362-609.122,271.189-608.936,272.017Z" transform="translate(630 -246.627)" fill="#fff"/>
    </g>
  </g>
</svg>
