<svg xmlns="http://www.w3.org/2000/svg" width="45.314" height="41.523" viewBox="0 0 45.314 41.523">
  <g id="family" transform="translate(0 -21.42)">
    <g id="Group_2245" data-name="Group 2245" transform="translate(9.859 35.83)">
      <g id="Group_2244" data-name="Group 2244">
        <path id="Path_16804" data-name="Path 16804" d="M115.512,184.379a.664.664,0,0,0-.934.1,1.234,1.234,0,0,1-2,0,.664.664,0,0,0-1.031.836,2.559,2.559,0,0,0,4.065,0A.664.664,0,0,0,115.512,184.379Z" transform="translate(-111.397 -184.231)" fill="#fff"/>
      </g>
    </g>
    <g id="Group_2247" data-name="Group 2247" transform="translate(8.342 32.038)">
      <g id="Group_2246" data-name="Group 2246" transform="translate(0 0)">
        <path id="Path_16805" data-name="Path 16805" d="M94.923,141.386a.664.664,0,0,0-.664.664v.758a.664.664,0,0,0,1.328,0v-.758A.664.664,0,0,0,94.923,141.386Z" transform="translate(-94.259 -141.386)" fill="#fff"/>
      </g>
    </g>
    <g id="Group_2249" data-name="Group 2249" transform="translate(14.41 32.038)">
      <g id="Group_2248" data-name="Group 2248" transform="translate(0 0)">
        <path id="Path_16806" data-name="Path 16806" d="M163.475,141.386a.664.664,0,0,0-.664.664v.758a.664.664,0,0,0,1.328,0v-.758A.664.664,0,0,0,163.475,141.386Z" transform="translate(-162.811 -141.386)" fill="#fff"/>
      </g>
    </g>
    <g id="Group_2251" data-name="Group 2251" transform="translate(31.853 39.621)">
      <g id="Group_2250" data-name="Group 2250">
        <path id="Path_16807" data-name="Path 16807" d="M364.013,227.223a.664.664,0,0,0-.934.1,1.234,1.234,0,0,1-2,0,.664.664,0,1,0-1.031.836,2.559,2.559,0,0,0,4.065,0A.664.664,0,0,0,364.013,227.223Z" transform="translate(-359.898 -227.075)" fill="#fff"/>
      </g>
    </g>
    <g id="Group_2253" data-name="Group 2253" transform="translate(30.336 35.83)">
      <g id="Group_2252" data-name="Group 2252" transform="translate(0 0)">
        <path id="Path_16808" data-name="Path 16808" d="M343.423,184.231a.664.664,0,0,0-.664.664v.758a.664.664,0,1,0,1.328,0v-.758A.664.664,0,0,0,343.423,184.231Z" transform="translate(-342.759 -184.231)" fill="#fff"/>
      </g>
    </g>
    <g id="Group_2255" data-name="Group 2255" transform="translate(36.403 35.83)">
      <g id="Group_2254" data-name="Group 2254" transform="translate(0 0)">
        <path id="Path_16809" data-name="Path 16809" d="M411.975,184.231a.664.664,0,0,0-.664.664v.758a.664.664,0,1,0,1.328,0v-.758A.664.664,0,0,0,411.975,184.231Z" transform="translate(-411.311 -184.231)" fill="#fff"/>
      </g>
    </g>
    <g id="Group_2257" data-name="Group 2257" transform="translate(0 21.42)">
      <g id="Group_2256" data-name="Group 2256" transform="translate(0 0)">
        <path id="Path_16810" data-name="Path 16810" d="M43.467,48.956l-5.2-2.08a.87.87,0,0,1-.081-.039,13.736,13.736,0,0,0,5.368-2.246.664.664,0,0,0,.236-.607,85.993,85.993,0,0,1-.752-10.524,9.006,9.006,0,1,0-18.012,0c0,1.361-.062,3.025-.162,4.6l-1.449.725-4.254-2.127-.038-.016a7.436,7.436,0,0,0,.383-1.857,2.179,2.179,0,0,0,.78-3.735V26.634a3.694,3.694,0,0,0-1.627-3.047,2.918,2.918,0,0,0-2.828-2.167H9.764a5.979,5.979,0,0,0-5.973,5.973V31.05a2.179,2.179,0,0,0,.78,3.735,7.486,7.486,0,0,0,3.012,5.447v1.835L2.094,43.713A2.921,2.921,0,0,0,0,46.528v7.408a.664.664,0,0,0,.664.664H.758v7.679a.664.664,0,1,0,1.328,0V54.6H4.55v7.679a.664.664,0,1,0,1.328,0V50.833a2.93,2.93,0,0,0-.494-1.63L4.25,47.5a.664.664,0,1,0-1.1.736l1.135,1.7a1.606,1.606,0,0,1,.271.894v2.439H1.328V46.528a1.6,1.6,0,0,1,1.148-1.543L4.755,44.3a7.49,7.49,0,0,0,10.834,4.854,2.178,2.178,0,0,0,1.759.894h.095v.095a5.975,5.975,0,0,0,3.034,5.2v1.083a.1.1,0,0,1-.065.09l-2.476.825a2.935,2.935,0,0,0-2.01,2.788v2.152a.664.664,0,0,0,1.328,0V60.127a1.609,1.609,0,0,1,1.1-1.529l.728-.243a5.214,5.214,0,0,0,8.664,0l.728.243a1.609,1.609,0,0,1,1.1,1.529v2.152a.664.664,0,0,0,1.328,0V60.127a2.935,2.935,0,0,0-2.01-2.788l-2.476-.825a.1.1,0,0,1-.065-.09V55.341a6,6,0,0,0,2.81-3.583A6.73,6.73,0,0,0,40.44,49.175l2.534,1.013a1.6,1.6,0,0,1,1.013,1.5v3.1H41.522v-.853a.664.664,0,0,0-1.328,0v8.342a.664.664,0,1,0,1.328,0V56.117h1.706v6.162a.664.664,0,1,0,1.328,0V56.117h.095a.664.664,0,0,0,.664-.664V51.685A2.924,2.924,0,0,0,43.467,48.956ZM26.355,33.46a7.679,7.679,0,1,1,15.357,0,87.15,87.15,0,0,0,.711,10.309,14.21,14.21,0,0,1-4.692,1.809V44.522a7.432,7.432,0,0,0,1.008-.684,7.472,7.472,0,0,0,2.784-5.827c0-3.752-2.713-4.29-5.337-4.811a10.648,10.648,0,0,1-4.771-1.774.664.664,0,0,0-1.078.518c0,.018-.029,1.764-2.531,2.39a.664.664,0,0,0,.322,1.288,4.392,4.392,0,0,0,3.3-2.581,13.9,13.9,0,0,0,4.5,1.461c2.8.557,4.268.966,4.268,3.509A6.145,6.145,0,0,1,37.9,42.805a6.161,6.161,0,0,1-7.456.215,7.5,7.5,0,0,0-1.817-2.8V37.252a.664.664,0,0,0-.961-.594l-1.433.717C26.315,35.992,26.355,34.678,26.355,33.46Zm.948,4.866v2.4l-2.4-1.2Zm-7.773,0,2.4,1.2-2.4,1.2Zm-3.6,7.268v.63a2.181,2.181,0,0,0-.758,1.645,6.162,6.162,0,0,1-9.139-3.95l1.64-.492a4.454,4.454,0,0,0,8.321,1.19A7.464,7.464,0,0,0,15.926,45.594ZM8.912,42.559V41.022a7.479,7.479,0,0,0,6.256,0V42.56a3.128,3.128,0,0,1-6.256.008S8.912,42.562,8.912,42.559Zm3.128-2.18a6.169,6.169,0,0,1-6.162-6.162.664.664,0,0,0-.664-.664.853.853,0,0,1,0-1.706H6.731a.664.664,0,0,0,.63-.454l.609-1.828c1.525-.034,6.254-.249,8.917-1.58a.664.664,0,0,0-.594-1.187c-2.857,1.428-8.745,1.447-8.8,1.447a.664.664,0,0,0-.63.454l-.607,1.821H5.214l-.095,0V27.393a4.65,4.65,0,0,1,4.645-4.645h6.067a1.6,1.6,0,0,1,1.584,1.358.664.664,0,0,0,.33.474,2.37,2.37,0,0,1,1.215,2.054v3.889l-.095,0h-.758a.664.664,0,1,0,0,1.328h.758a.853.853,0,1,1,0,1.706.664.664,0,0,0-.664.664A6.169,6.169,0,0,1,12.04,40.38ZM16.5,42.56V40.232A7.55,7.55,0,0,0,18.2,38.468v1.751a7.5,7.5,0,0,0-1.711,2.526C16.493,42.684,16.5,42.622,16.5,42.56Zm9.927,15.353a3.883,3.883,0,0,1-6.014,0l.423-.141a1.42,1.42,0,0,0,.972-1.349v-.529a5.942,5.942,0,0,0,3.223,0v.529A1.42,1.42,0,0,0,26,57.772Zm2.3-9.191a.664.664,0,0,0-.664.664v.66c0,.006,0,.012,0,.017v.081a4.645,4.645,0,1,1-9.29,0v-.758a.664.664,0,0,0-.664-.664h-.758a.854.854,0,0,1-.853-.853.843.843,0,0,1,.428-.733.66.66,0,0,0,.157-.129c1.641-.048,6.96-.356,10.456-2.354a.664.664,0,1,0-.659-1.153c-3.062,1.75-7.875,2.1-9.624,2.17v-.077a6.168,6.168,0,0,1,1.051-3.438.662.662,0,0,0,.857.24l4.254-2.127L27.669,42.4a.66.66,0,0,0,.857-.24,6.168,6.168,0,0,1,1.051,3.438v.969a.664.664,0,0,0,.33.574.843.843,0,0,1,.429.733.854.854,0,0,1-.853.853Zm5.309,3.792A5.411,5.411,0,0,1,29.5,50.049,2.175,2.175,0,0,0,30.9,46.224v-.63a7.464,7.464,0,0,0-.043-.8,7.484,7.484,0,0,0,5.541.314v.972a2.17,2.17,0,0,0,1.371,2.025l1.431.573A5.4,5.4,0,0,1,34.033,52.514Z" transform="translate(0 -21.42)" fill="#fff"/>
      </g>
    </g>
    <g id="Group_2259" data-name="Group 2259" transform="translate(21.235 50.997)">
      <g id="Group_2258" data-name="Group 2258" transform="translate(0 0)">
        <path id="Path_16811" data-name="Path 16811" d="M244.047,355.758a.664.664,0,0,0-.934.1,1.234,1.234,0,0,1-2,0,.664.664,0,1,0-1.031.836,2.559,2.559,0,0,0,4.065,0A.664.664,0,0,0,244.047,355.758Z" transform="translate(-239.932 -355.61)" fill="#fff"/>
      </g>
    </g>
    <g id="Group_2261" data-name="Group 2261" transform="translate(20.489 47.967)">
      <g id="Group_2260" data-name="Group 2260">
        <circle id="Ellipse_118" data-name="Ellipse 118" cx="0.664" cy="0.664" r="0.664" fill="#fff"/>
      </g>
    </g>
    <g id="Group_2263" data-name="Group 2263" transform="translate(25.003 47.967)">
      <g id="Group_2262" data-name="Group 2262">
        <circle id="Ellipse_119" data-name="Ellipse 119" cx="0.664" cy="0.664" r="0.664" fill="#fff"/>
      </g>
    </g>
  </g>
</svg>
