<svg xmlns="http://www.w3.org/2000/svg" width="34.651" height="30.829" viewBox="0 0 34.651 30.829">
  <path id="heart" d="M17.326,30.829a2.032,2.032,0,0,1-1.34-.5c-1.4-1.224-2.749-2.374-3.94-3.389l-.006-.005a73.282,73.282,0,0,1-8.6-8.075C1.092,16.027,0,13.344,0,10.414a10.83,10.83,0,0,1,2.749-7.4A9.318,9.318,0,0,1,9.68,0a8.716,8.716,0,0,1,5.444,1.879,11.139,11.139,0,0,1,2.2,2.3,11.14,11.14,0,0,1,2.2-2.3A8.716,8.716,0,0,1,24.972,0,9.318,9.318,0,0,1,31.9,3.017a10.83,10.83,0,0,1,2.749,7.4c0,2.931-1.092,5.613-3.437,8.442a73.265,73.265,0,0,1-8.6,8.075c-1.193,1.016-2.545,2.168-3.948,3.4A2.033,2.033,0,0,1,17.326,30.829ZM9.68,2.03A7.31,7.31,0,0,0,4.241,4.393,8.81,8.81,0,0,0,2.03,10.414c0,2.465.916,4.669,2.97,7.147a72.112,72.112,0,0,0,8.357,7.825l.006.005c1.2,1.019,2.55,2.173,3.96,3.406,1.419-1.235,2.776-2.392,3.973-3.412a72.125,72.125,0,0,0,8.356-7.825c2.054-2.478,2.97-4.683,2.97-7.147A8.81,8.81,0,0,0,30.41,4.393,7.31,7.31,0,0,0,24.972,2.03a6.732,6.732,0,0,0-4.2,1.455A9.849,9.849,0,0,0,18.426,6.2a1.281,1.281,0,0,1-2.2,0,9.84,9.84,0,0,0-2.342-2.71A6.732,6.732,0,0,0,9.68,2.03Zm0,0" fill="#fff"/>
</svg>
