<svg id="hospital" xmlns="http://www.w3.org/2000/svg" width="30.962" height="30.962" viewBox="0 0 30.962 30.962">
  <g id="Group_2265" data-name="Group 2265">
    <g id="Group_2264" data-name="Group 2264">
      <path id="Path_16812" data-name="Path 16812" d="M15.481,0A15.481,15.481,0,1,0,30.962,15.481,15.49,15.49,0,0,0,15.481,0Zm0,29.619A14.138,14.138,0,1,1,29.619,15.481,14.153,14.153,0,0,1,15.481,29.619Z" fill="#fff"/>
    </g>
  </g>
  <g id="Group_2267" data-name="Group 2267" transform="translate(6.752 6.752)">
    <g id="Group_2266" data-name="Group 2266">
      <path id="Path_16813" data-name="Path 16813" d="M89.186,77.772h-4.7v-4.7a.669.669,0,0,0-.671-.671H78.443a.669.669,0,0,0-.671.671v4.7h-4.7a.669.669,0,0,0-.671.671v5.372a.669.669,0,0,0,.671.671h4.7v4.7a.669.669,0,0,0,.671.671h5.372a.669.669,0,0,0,.671-.671v-4.7h4.7a.669.669,0,0,0,.671-.671V78.443A.721.721,0,0,0,89.186,77.772Zm-.634,5.372H83.815a.669.669,0,0,0-.671.671v4.7H79.115v-4.7a.669.669,0,0,0-.671-.671h-4.7V79.115h4.7a.669.669,0,0,0,.671-.671v-4.7h4.066v4.7a.669.669,0,0,0,.671.671h4.7Z" transform="translate(-72.4 -72.4)" fill="#fff"/>
    </g>
  </g>
</svg>
