<svg xmlns="http://www.w3.org/2000/svg" xmlns:xlink="http://www.w3.org/1999/xlink" width="265.903" height="64.874" viewBox="0 0 265.903 64.874">
  <defs>
    <filter id="Path_156" x="0" y="0" width="58.327" height="64.874" filterUnits="userSpaceOnUse">
      <feOffset dy="2" input="SourceAlpha"/>
      <feGaussianBlur stdDeviation="1" result="blur"/>
      <feFlood flood-opacity="0.161"/>
      <feComposite operator="in" in2="blur"/>
      <feComposite in="SourceGraphic"/>
    </filter>
  </defs>
  <g id="mytarotime-logo" transform="translate(-50.597 -15)">
    <g id="Group_124" data-name="Group 124" transform="translate(53.597 16)">
      <path id="Rectangle_1" data-name="Rectangle 1" d="M0,0H13.344a7,7,0,0,1,7,7V29.3a0,0,0,0,1,0,0H7a7,7,0,0,1-7-7V0A0,0,0,0,1,0,0Z" transform="translate(242.559 17.071)" fill="#ffec7d"/>
      <g transform="matrix(1, 0, 0, 1, -3, -1)" filter="url(#Path_156)">
        <path id="Path_156-2" data-name="Path 156" d="M994.889,528.059a4.592,4.592,0,0,0-4.586-4.587H978.562l-5.868-10.136a4.587,4.587,0,0,0-7.939,0l-5.868,10.136H947.147a4.586,4.586,0,0,0-3.969,6.884l5.862,10.127-5.862,10.127a4.587,4.587,0,0,0,3.969,6.885h11.741l5.868,10.136a4.587,4.587,0,0,0,7.939,0l5.868-10.136H990.3a4.587,4.587,0,0,0,3.97-6.885l-5.862-10.127,5.827-10.067A4.585,4.585,0,0,0,994.889,528.059Z" transform="translate(-939.56 -510.05)"/>
      </g>
      <path id="Path_157" data-name="Path 157" d="M1004.676,541.858a1.764,1.764,0,0,0-1.5-2.685H990.377a1.758,1.758,0,0,0-.527.081l-6.73-11.625a1.764,1.764,0,0,0-3.053,0l-6.46,11.16a1.75,1.75,0,0,0-.165.384H960.015a1.764,1.764,0,0,0-1.527,2.648L965,553.064a1.751,1.751,0,0,0,.19.268l-6.7,11.572a1.764,1.764,0,0,0,1.527,2.648h12.917a1.762,1.762,0,0,0,.421-.051l.244.421,6.469,11.175a1.764,1.764,0,0,0,3.053,0l6.44-11.125a1.768,1.768,0,0,0,.175-.42h13.436a1.764,1.764,0,0,0,1.527-2.648l-6.454-11.149a1.762,1.762,0,0,0-.257-.341l.314-.542Z" transform="translate(-955.43 -523.925)" fill="#fff"/>
      <g id="Group_112" data-name="Group 112" transform="translate(4.585 4.587)">
        <path id="Path_161" data-name="Path 161" d="M1004.765,562.686l-.965,1.742-.752-1.253.978-1.766-2.19-3.783-.991,1.743-.8-1.274,1.007-1.824-2.022-3.493-2.2-3.794-7.193-12.425-6.46,11.161H985.2l-.732,1.265h-2.019l-2.2,3.794h1.975l-.75,1.295H979.5l-2.055,3.55-2.192,3.786-7.193,12.425H980.98l-1.763-2.885,1.481,0,1.75,2.882h4.384l-1.713-2.847h1.49l1.719,2.847h22.891Z" transform="translate(-968.063 -536.559)" fill="#659f3d"/>
      </g>
      <g id="Group_122" data-name="Group 122" transform="translate(4.585 17.012)">
        <path id="Path_158" data-name="Path 158" d="M1142.544,618.1l.8-1.374,6.4-11.051h-12.794l2.2,3.794h4.018l-2.009,3.47-.577,1-.217.381Z" transform="translate(-1106.581 -605.671)" fill="#e75f4f"/>
        <path id="Path_159" data-name="Path 159" d="M1048.8,745.144l6.469,11.175,6.44-11.125-4.374-.017-2.066,3.569-2.075-3.585-.734-1.267h-4.384Z" transform="translate(-1033.693 -719.043)" fill="#e75f4f"/>
        <path id="Path_160" data-name="Path 160" d="M981.08,605.671H968.063l6.509,11.243,2.192-3.786-2.12-3.663h5.609l2.2-3.794Z" transform="translate(-968.063 -605.671)" fill="#e75f4f"/>
        <g id="Group_121" data-name="Group 121" transform="translate(8.493 3.393)">
          <g id="Group_115" data-name="Group 115" transform="translate(5.139 4.618)">
            <g id="Group_114" data-name="Group 114">
              <path id="Path_163" data-name="Path 163" d="M1051.835,651.316a8.026,8.026,0,0,1,5.249,1.9,9.01,9.01,0,0,1,1.37,1.417,9.527,9.527,0,0,1-1.408,1.432,8.3,8.3,0,0,1-10.555.024,7.835,7.835,0,0,1-1.332-1.457,7.8,7.8,0,0,1,6.676-3.316m0-1.087a8.731,8.731,0,0,0-7.946,4.414,8.913,8.913,0,0,0,7.946,4.414,9.744,9.744,0,0,0,7.946-4.414,9.5,9.5,0,0,0-7.946-4.414Z" transform="translate(-1043.889 -650.229)" fill="#ffec7d"/>
            </g>
          </g>
          <circle id="Ellipse_34" data-name="Ellipse 34" cx="3.599" cy="3.599" r="3.599" transform="translate(9.485 5.433)" fill="#ffec7d"/>
          <g id="Group_117" data-name="Group 117" transform="translate(12.405)">
            <path id="Path_164" data-name="Path 164" d="M1085.665,709.912l-.679,2.717-.679-2.717Z" transform="translate(-1084.307 -694.564)" fill="#ffec7d"/>
            <path id="Path_165" data-name="Path 165" d="M1084.307,627.258l.679-2.716.679,2.716Z" transform="translate(-1084.307 -624.542)" fill="#ffec7d"/>
          </g>
          <g id="Group_118" data-name="Group 118" transform="translate(0 8.353)">
            <path id="Path_166" data-name="Path 166" d="M1019.241,672.363l-3.935-.679,3.935-.679Z" transform="translate(-1015.306 -671.005)" fill="#ffec7d"/>
            <path id="Path_167" data-name="Path 167" d="M1138.975,671.005l3.935.679-3.935.679Z" transform="translate(-1116.741 -671.005)" fill="#ffec7d"/>
          </g>
          <g id="Group_119" data-name="Group 119" transform="translate(5.772 1.721)">
            <path id="Path_168" data-name="Path 168" d="M1114.813,700.55l1.719,2.679-2.679-1.719Z" transform="translate(-1101.908 -688.606)" fill="#ffec7d"/>
            <path id="Path_169" data-name="Path 169" d="M1049.133,636.791l-1.719-2.679,2.679,1.719Z" transform="translate(-1047.414 -634.112)" fill="#ffec7d"/>
          </g>
          <g id="Group_120" data-name="Group 120" transform="translate(5.772 1.721)">
            <path id="Path_170" data-name="Path 170" d="M1050.093,701.51l-2.679,1.719,1.719-2.679Z" transform="translate(-1047.414 -688.606)" fill="#ffec7d"/>
            <path id="Path_171" data-name="Path 171" d="M1113.852,635.831l2.679-1.719-1.719,2.679Z" transform="translate(-1101.908 -634.112)" fill="#ffec7d"/>
          </g>
        </g>
      </g>
      <path id="Path_15964" data-name="Path 15964" d="M1.177,0A1.177,1.177,0,1,1,0,1.177,1.177,1.177,0,0,1,1.177,0Z" transform="translate(24.985 28.259)" fill="#659f3d"/>
      <path id="Path_180" data-name="Path 180" d="M0,8.619V9.99H1.06V8.619ZM4.182,0C2.671,0,1.964.989,1.964,2.487V7.6c0,1.5.706,2.487,2.218,2.487S6.415,9.1,6.415,7.6V6.373H5.369V7.658c0,.89-.353,1.427-1.159,1.427S3.052,8.549,3.052,7.658V2.43C3.052,1.54,3.419,1,4.211,1S5.369,1.54,5.369,2.43v.947H6.415v-.89C6.415.989,5.709,0,4.182,0ZM7.333,7.6c0,1.5.749,2.487,2.261,2.487S11.869,9.1,11.869,7.6V2.487C11.869.975,11.12,0,9.594,0S7.333.975,7.333,2.487ZM8.421,2.43C8.421,1.54,8.8,1,9.594,1s1.173.537,1.173,1.427V7.658c0,.9-.367,1.427-1.173,1.427S8.421,8.563,8.421,7.658Zm9.707-.4V9.99h1.046V.1h-1.54L16.066,8,14.441.1H12.9V9.99h.961V2.105L15.5,9.976h1.06Z" transform="translate(247.564 41.59) rotate(-90)"/>
      <path id="Path_179" data-name="Path 179" d="M4.131-.885A2.872,2.872,0,0,0,4.993-1a1.6,1.6,0,0,0,.594-.323,1.251,1.251,0,0,0,.341-.494,1.765,1.765,0,0,0,.109-.63A1.293,1.293,0,0,0,5.56-3.505a2.224,2.224,0,0,0-1.429-.389H2.262V-.885ZM2.262-7.674v2.948H3.805a3.028,3.028,0,0,0,.859-.109,1.731,1.731,0,0,0,.6-.3A1.179,1.179,0,0,0,5.62-5.6a1.541,1.541,0,0,0,.115-.6,1.322,1.322,0,0,0-.458-1.118,2.33,2.33,0,0,0-1.423-.353ZM3.853-8.6a5.268,5.268,0,0,1,1.372.157,2.656,2.656,0,0,1,.947.446,1.735,1.735,0,0,1,.546.708,2.43,2.43,0,0,1,.175.944,1.887,1.887,0,0,1-.1.612,1.836,1.836,0,0,1-.3.546,2.129,2.129,0,0,1-.5.455,2.757,2.757,0,0,1-.714.329,2.609,2.609,0,0,1,1.432.678,1.8,1.8,0,0,1,.479,1.305,2.427,2.427,0,0,1-.2,1,2.144,2.144,0,0,1-.591.778,2.753,2.753,0,0,1-.956.5,4.306,4.306,0,0,1-1.29.178H1.1V-8.6Zm9.906,2.532-3.407,7.91a.562.562,0,0,1-.136.193.368.368,0,0,1-.25.072h-.8L10.287-.313,7.766-6.065h.929A.328.328,0,0,1,8.915-6a.364.364,0,0,1,.112.154L10.66-1.995a4.294,4.294,0,0,1,.163.531Q10.908-1.748,11-2L12.59-5.841A.343.343,0,0,1,12.713-6a.326.326,0,0,1,.2-.063ZM17.4-4.027H20.38v.91H17.4Zm10.467-.09a2.7,2.7,0,0,0,.883-.133,1.843,1.843,0,0,0,.645-.371,1.524,1.524,0,0,0,.395-.57,1.947,1.947,0,0,0,.133-.73,1.657,1.657,0,0,0-.509-1.29,2.234,2.234,0,0,0-1.547-.464H26.481v3.557Zm0-4.48a4.786,4.786,0,0,1,1.426.19,2.739,2.739,0,0,1,1,.54,2.175,2.175,0,0,1,.594.844,2.971,2.971,0,0,1,.2,1.1,2.812,2.812,0,0,1-.211,1.1,2.374,2.374,0,0,1-.618.862,2.874,2.874,0,0,1-1.007.564,4.334,4.334,0,0,1-1.384.2H26.481V.043H25.318V-8.6ZM33.21-4.841a2.754,2.754,0,0,1,.711-.98,1.554,1.554,0,0,1,1.031-.353,1.6,1.6,0,0,1,.371.042A.994.994,0,0,1,35.64-6l-.078.8a.173.173,0,0,1-.181.151,1.245,1.245,0,0,1-.247-.036,1.7,1.7,0,0,0-.368-.036,1.467,1.467,0,0,0-.516.084,1.205,1.205,0,0,0-.4.25,1.768,1.768,0,0,0-.32.41,3.514,3.514,0,0,0-.256.558V.043H32.191V-6.065h.615A.339.339,0,0,1,33.047-6a.407.407,0,0,1,.09.229Zm6.584,2.134a8.946,8.946,0,0,0-1.263.118,3.592,3.592,0,0,0-.85.244,1.174,1.174,0,0,0-.476.356.765.765,0,0,0-.148.458,1.011,1.011,0,0,0,.078.416.773.773,0,0,0,.214.286.859.859,0,0,0,.32.163,1.466,1.466,0,0,0,.395.051,2.191,2.191,0,0,0,.519-.057,1.954,1.954,0,0,0,.443-.166,2.5,2.5,0,0,0,.4-.259,3.447,3.447,0,0,0,.371-.344ZM36.327-5.2a3.488,3.488,0,0,1,1.091-.73,3.37,3.37,0,0,1,1.3-.241,2.313,2.313,0,0,1,.91.169,1.867,1.867,0,0,1,.669.47,1.992,1.992,0,0,1,.41.73,3.039,3.039,0,0,1,.139.941V.043h-.476a.468.468,0,0,1-.241-.051.349.349,0,0,1-.133-.2l-.121-.579a5.984,5.984,0,0,1-.47.395A2.692,2.692,0,0,1,38.92-.1a2.62,2.62,0,0,1-.54.181,2.952,2.952,0,0,1-.636.063,2.2,2.2,0,0,1-.669-.1,1.546,1.546,0,0,1-.546-.3,1.4,1.4,0,0,1-.368-.5,1.759,1.759,0,0,1-.136-.72,1.344,1.344,0,0,1,.2-.7,1.744,1.744,0,0,1,.645-.594A4.231,4.231,0,0,1,38.033-3.2a8.873,8.873,0,0,1,1.761-.19v-.476a1.633,1.633,0,0,0-.307-1.076,1.109,1.109,0,0,0-.9-.365,1.932,1.932,0,0,0-.666.1,2.5,2.5,0,0,0-.464.223q-.2.124-.338.223a.487.487,0,0,1-.28.1.308.308,0,0,1-.187-.057.526.526,0,0,1-.133-.142ZM48.066.043H46.993V-5.166H43.846V-1.5a.78.78,0,0,0,.187.573.653.653,0,0,0,.482.187.851.851,0,0,0,.292-.045,1.255,1.255,0,0,0,.214-.1q.09-.054.154-.1a.2.2,0,0,1,.112-.045.185.185,0,0,1,.151.1l.314.512a2,2,0,0,1-.669.407,2.273,2.273,0,0,1-.808.148,1.472,1.472,0,0,1-1.112-.4,1.612,1.612,0,0,1-.389-1.164V-5.166h-.736a.24.24,0,0,1-.163-.057.223.223,0,0,1-.066-.178v-.428l1-.133.247-1.881a.263.263,0,0,1,.081-.148.238.238,0,0,1,.166-.057h.543v2.1h4.22Zm.265-8.067a.683.683,0,0,1-.063.292.8.8,0,0,1-.169.238.812.812,0,0,1-.244.163.733.733,0,0,1-.3.06.712.712,0,0,1-.292-.06.784.784,0,0,1-.238-.163.784.784,0,0,1-.163-.238.712.712,0,0,1-.06-.292.754.754,0,0,1,.06-.3.8.8,0,0,1,.163-.247.758.758,0,0,1,.238-.166.712.712,0,0,1,.292-.06.733.733,0,0,1,.3.06.784.784,0,0,1,.244.166.818.818,0,0,1,.169.247A.723.723,0,0,1,48.331-8.024Zm2.574,6.6a1.726,1.726,0,0,0,.648.561,1.826,1.826,0,0,0,.775.163,1.552,1.552,0,0,0,1.32-.609,3,3,0,0,0,.458-1.815A2.7,2.7,0,0,0,53.7-4.777,1.379,1.379,0,0,0,52.54-5.3a1.7,1.7,0,0,0-.913.241,2.69,2.69,0,0,0-.72.681Zm0-3.756a3.141,3.141,0,0,1,.871-.711A2.294,2.294,0,0,1,52.9-6.161a2.225,2.225,0,0,1,.968.2,2.009,2.009,0,0,1,.733.594,2.777,2.777,0,0,1,.461.944,4.508,4.508,0,0,1,.16,1.248,4.733,4.733,0,0,1-.181,1.351,3.065,3.065,0,0,1-.522,1.04,2.367,2.367,0,0,1-.829.669,2.471,2.471,0,0,1-1.1.238A2.092,2.092,0,0,1,51.572-.1a2.222,2.222,0,0,1-.721-.642L50.8-.186a.258.258,0,0,1-.277.229h-.693V-8.838h1.079Zm6.753-.066a3.242,3.242,0,0,1,.868-.663,2.348,2.348,0,0,1,1.1-.247A2.205,2.205,0,0,1,60.507-6a1.709,1.709,0,0,1,.639.47,2.077,2.077,0,0,1,.389.733,3.188,3.188,0,0,1,.133.947V.043H60.589V-3.846a1.644,1.644,0,0,0-.317-1.076,1.176,1.176,0,0,0-.962-.383,1.8,1.8,0,0,0-.889.229,2.929,2.929,0,0,0-.763.621v4.5H56.579V-8.838h1.079Zm8.96,2.544a8.945,8.945,0,0,0-1.263.118,3.592,3.592,0,0,0-.85.244,1.174,1.174,0,0,0-.476.356.765.765,0,0,0-.148.458,1.011,1.011,0,0,0,.078.416.773.773,0,0,0,.214.286.859.859,0,0,0,.32.163,1.466,1.466,0,0,0,.395.051,2.191,2.191,0,0,0,.519-.057,1.954,1.954,0,0,0,.443-.166,2.5,2.5,0,0,0,.4-.259,3.449,3.449,0,0,0,.371-.344ZM63.151-5.2a3.488,3.488,0,0,1,1.091-.73,3.369,3.369,0,0,1,1.3-.241,2.313,2.313,0,0,1,.91.169,1.867,1.867,0,0,1,.669.47,1.992,1.992,0,0,1,.41.73,3.039,3.039,0,0,1,.139.941V.043h-.476a.468.468,0,0,1-.241-.051.349.349,0,0,1-.133-.2L66.7-.789a5.985,5.985,0,0,1-.47.395,2.692,2.692,0,0,1-.482.289,2.62,2.62,0,0,1-.54.181,2.952,2.952,0,0,1-.636.063A2.2,2.2,0,0,1,63.9.04a1.546,1.546,0,0,1-.546-.3,1.4,1.4,0,0,1-.368-.5,1.759,1.759,0,0,1-.136-.72,1.344,1.344,0,0,1,.2-.7,1.744,1.744,0,0,1,.645-.594A4.231,4.231,0,0,1,64.858-3.2a8.873,8.873,0,0,1,1.761-.19v-.476a1.633,1.633,0,0,0-.307-1.076,1.109,1.109,0,0,0-.9-.365,1.931,1.931,0,0,0-.666.1,2.5,2.5,0,0,0-.464.223q-.2.124-.338.223a.487.487,0,0,1-.28.1.308.308,0,0,1-.187-.057.525.525,0,0,1-.133-.142ZM73.8-4.81h.44a.98.98,0,0,0,.368-.057.656.656,0,0,0,.253-.2l2.876-3.256A.692.692,0,0,1,78-8.537a.785.785,0,0,1,.326-.06h.989l-3.292,3.72a1.884,1.884,0,0,1-.232.238,1.119,1.119,0,0,1-.238.154.957.957,0,0,1,.3.16,1.49,1.49,0,0,1,.259.274L79.539.043H78.526a1.094,1.094,0,0,1-.2-.015.47.47,0,0,1-.142-.048A.465.465,0,0,1,78.083-.1.787.787,0,0,1,78-.2L75.017-3.635a.723.723,0,0,0-.259-.214,1.068,1.068,0,0,0-.422-.063H73.8V.043H72.641V-8.6H73.8Zm9.846,2.1a8.945,8.945,0,0,0-1.263.118,3.592,3.592,0,0,0-.85.244,1.174,1.174,0,0,0-.476.356.765.765,0,0,0-.148.458,1.011,1.011,0,0,0,.078.416.773.773,0,0,0,.214.286.859.859,0,0,0,.32.163,1.466,1.466,0,0,0,.395.051,2.191,2.191,0,0,0,.519-.057,1.954,1.954,0,0,0,.443-.166,2.5,2.5,0,0,0,.4-.259,3.447,3.447,0,0,0,.371-.344ZM80.184-5.2a3.488,3.488,0,0,1,1.091-.73,3.369,3.369,0,0,1,1.3-.241,2.313,2.313,0,0,1,.91.169,1.867,1.867,0,0,1,.669.47,1.992,1.992,0,0,1,.41.73,3.038,3.038,0,0,1,.139.941V.043h-.476a.468.468,0,0,1-.241-.051.349.349,0,0,1-.133-.2l-.121-.579a5.987,5.987,0,0,1-.47.395,2.691,2.691,0,0,1-.482.289,2.62,2.62,0,0,1-.54.181A2.953,2.953,0,0,1,81.6.14a2.2,2.2,0,0,1-.669-.1,1.546,1.546,0,0,1-.546-.3,1.4,1.4,0,0,1-.368-.5,1.759,1.759,0,0,1-.136-.72,1.344,1.344,0,0,1,.2-.7,1.744,1.744,0,0,1,.645-.594A4.231,4.231,0,0,1,81.89-3.2a8.873,8.873,0,0,1,1.761-.19v-.476a1.633,1.633,0,0,0-.307-1.076,1.109,1.109,0,0,0-.9-.365,1.932,1.932,0,0,0-.666.1,2.5,2.5,0,0,0-.464.223q-.2.124-.338.223a.487.487,0,0,1-.28.1.308.308,0,0,1-.187-.057.526.526,0,0,1-.133-.142ZM88.131.14a1.472,1.472,0,0,1-1.112-.4,1.612,1.612,0,0,1-.389-1.164V-5.166h-.736a.24.24,0,0,1-.163-.057.223.223,0,0,1-.066-.178v-.428l1-.127.247-1.887a.263.263,0,0,1,.081-.148.238.238,0,0,1,.166-.057H87.7v2.1h1.767v.778H87.7V-1.5a.78.78,0,0,0,.187.573.653.653,0,0,0,.482.187.851.851,0,0,0,.292-.045,1.254,1.254,0,0,0,.214-.1q.09-.054.154-.1a.2.2,0,0,1,.112-.045.185.185,0,0,1,.151.1l.314.512a2,2,0,0,1-.669.407A2.273,2.273,0,0,1,88.131.14Zm3.527-5.39a3.242,3.242,0,0,1,.868-.663,2.348,2.348,0,0,1,1.1-.247A2.205,2.205,0,0,1,94.506-6a1.709,1.709,0,0,1,.639.47,2.077,2.077,0,0,1,.389.733,3.189,3.189,0,0,1,.133.947V.043H94.588V-3.846a1.644,1.644,0,0,0-.317-1.076A1.176,1.176,0,0,0,93.31-5.3a1.8,1.8,0,0,0-.889.229,2.929,2.929,0,0,0-.763.621v4.5H90.578V-8.838h1.079Zm10.672-.814V.043h-.639A.274.274,0,0,1,101.4-.18l-.084-.657a3.36,3.36,0,0,1-.892.708A2.338,2.338,0,0,1,99.291.14a2.205,2.205,0,0,1-.883-.166,1.751,1.751,0,0,1-.642-.467,1.984,1.984,0,0,1-.389-.73,3.256,3.256,0,0,1-.13-.947V-6.065H98.32V-2.17A1.631,1.631,0,0,0,98.637-1.1a1.188,1.188,0,0,0,.968.38,1.823,1.823,0,0,0,.889-.226,2.825,2.825,0,0,0,.763-.624v-4.5Zm2.719,1.224a2.754,2.754,0,0,1,.711-.98,1.554,1.554,0,0,1,1.031-.353,1.6,1.6,0,0,1,.371.042,1,1,0,0,1,.317.133l-.078.8a.173.173,0,0,1-.181.151,1.245,1.245,0,0,1-.247-.036,1.7,1.7,0,0,0-.368-.036,1.467,1.467,0,0,0-.516.084,1.205,1.205,0,0,0-.4.25,1.768,1.768,0,0,0-.32.41,3.516,3.516,0,0,0-.256.558V.043H104.03V-6.065h.615a.339.339,0,0,1,.241.066.407.407,0,0,1,.09.229Zm4.5-1.224V.043h-1.073V-6.065Zm.229-1.917a.683.683,0,0,1-.063.292.842.842,0,0,1-.169.241.775.775,0,0,1-.247.166.754.754,0,0,1-.3.06.712.712,0,0,1-.292-.06.758.758,0,0,1-.238-.166.823.823,0,0,1-.163-.241.712.712,0,0,1-.06-.292.754.754,0,0,1,.06-.3.8.8,0,0,1,.163-.247.758.758,0,0,1,.238-.166.712.712,0,0,1,.292-.06.754.754,0,0,1,.3.06.775.775,0,0,1,.247.166.818.818,0,0,1,.169.247A.723.723,0,0,1,109.782-7.982Zm4.841,5.276a8.945,8.945,0,0,0-1.263.118,3.592,3.592,0,0,0-.85.244,1.174,1.174,0,0,0-.476.356.765.765,0,0,0-.148.458,1.011,1.011,0,0,0,.078.416.773.773,0,0,0,.214.286.86.86,0,0,0,.32.163,1.466,1.466,0,0,0,.395.051,2.191,2.191,0,0,0,.519-.057,1.954,1.954,0,0,0,.443-.166,2.5,2.5,0,0,0,.4-.259,3.446,3.446,0,0,0,.371-.344Zm-3.467-2.5a3.487,3.487,0,0,1,1.091-.73,3.369,3.369,0,0,1,1.3-.241,2.313,2.313,0,0,1,.91.169,1.867,1.867,0,0,1,.669.47,1.992,1.992,0,0,1,.41.73,3.039,3.039,0,0,1,.139.941V.043H115.2a.468.468,0,0,1-.241-.051.349.349,0,0,1-.133-.2L114.7-.789a5.987,5.987,0,0,1-.47.395,2.691,2.691,0,0,1-.482.289,2.62,2.62,0,0,1-.54.181,2.952,2.952,0,0,1-.636.063,2.2,2.2,0,0,1-.669-.1,1.546,1.546,0,0,1-.546-.3,1.4,1.4,0,0,1-.368-.5,1.759,1.759,0,0,1-.136-.72,1.344,1.344,0,0,1,.2-.7,1.744,1.744,0,0,1,.645-.594,4.231,4.231,0,0,1,1.164-.425,8.873,8.873,0,0,1,1.761-.19v-.476a1.633,1.633,0,0,0-.307-1.076,1.109,1.109,0,0,0-.9-.365,1.932,1.932,0,0,0-.666.1,2.5,2.5,0,0,0-.464.223q-.2.124-.338.223a.487.487,0,0,1-.28.1.308.308,0,0,1-.187-.057.525.525,0,0,1-.133-.142Z" transform="translate(122.471 54.441)"/>
      <text id="MYTAROTIME" transform="translate(58.403 40)" fill="#e75f4f" font-size="27" font-family="Montserrat-Bold, Montserrat" font-weight="700" letter-spacing="-0.05em"><tspan x="0" y="0">MY</tspan><tspan y="0" fill="#659f3d">TAROTIME</tspan></text>
    </g>
  </g>
</svg>
