<svg id="rupee" xmlns="http://www.w3.org/2000/svg" width="34" height="34" viewBox="0 0 34 34">
  <g id="Group_2269" data-name="Group 2269">
    <g id="Group_2268" data-name="Group 2268">
      <path id="Path_16814" data-name="Path 16814" d="M17,0A17,17,0,1,0,34,17,17.02,17.02,0,0,0,17,0Zm0,31.875A14.875,14.875,0,1,1,31.875,17,14.893,14.893,0,0,1,17,31.875Z" fill="#fff"/>
    </g>
  </g>
  <g id="Group_2271" data-name="Group 2271" transform="translate(10.624 8.5)">
    <g id="Group_2270" data-name="Group 2270">
      <path id="Path_16815" data-name="Path 16815" d="M171.68,132.25h-1.171a5.241,5.241,0,0,0-.982-2.125h2.153a1.063,1.063,0,1,0,0-2.125H161.055a1.063,1.063,0,0,0,0,2.125h4.25a3.182,3.182,0,0,1,2.992,2.125h-7.242a1.063,1.063,0,0,0,0,2.125H168.3a3.182,3.182,0,0,1-2.992,2.125h-4.25a1.063,1.063,0,0,0-.982.657,1.054,1.054,0,0,0,0,.812,1.013,1.013,0,0,0,.232.346l8.5,8.5a1.062,1.062,0,1,0,1.5-1.5l-6.687-6.687h1.685a5.318,5.318,0,0,0,5.2-4.25h1.171a1.063,1.063,0,1,0,0-2.125Z" transform="translate(-159.992 -128)" fill="#fff"/>
    </g>
  </g>
</svg>
